<?xml version="1.0" encoding="UTF-8"?>
<svg width="587px" height="70px" viewBox="0 0 587 70" version="1.1" xmlns="http://www.w3.org/2000/svg" xmlns:xlink="http://www.w3.org/1999/xlink">
    <title>atabix-logo-1 copy 3</title>
    <g id="Atabix-Brand" stroke="none" stroke-width="1" fill="none" fill-rule="evenodd">
        <g id="4." transform="translate(-117.000000, -263.000000)">
            <rect fill="#EAECEC" x="0" y="0" width="842" height="595"></rect>
            <rect id="Rectangle" fill="#FFFFFF" x="-47" y="24" width="865" height="547"></rect>
            <line x1="-9" y1="298" x2="206" y2="298" id="Line-Copy-2" stroke="#0A2B39" stroke-width="4" stroke-linecap="square"></line>
            <rect id="Rectangle-4" stroke="#0A2B39" fill="#0A2B39" x="87.5" y="191.5" width="635" height="212"></rect>
            <g id="atabix-logo-1-copy-3" transform="translate(117.000000, 263.000000)" fill="#FFFFFF" fill-rule="nonzero">
                <path d="M587,70 L569.894172,70 L541.804602,42.6086956 L513.71503,70 L496.609202,70 L533.341718,34.5524296 L497.869632,0.179028133 L514.97546,0.179028133 L541.804602,26.4961637 L568.453682,0.179028133 L585.55951,0.179028133 L550.267484,34.5524296 L587,70 Z M463.477914,70 L449.793252,70 L449.793252,0.179028133 L463.477914,0.179028133 L463.477914,70 Z M182.042025,12.5319693 L148.370552,12.5319693 L148.370552,70 L134.68589,70 L134.68589,12.5319693 L101.194478,12.5319693 L101.194478,0.179028133 L182.042025,0.179028133 L182.042025,12.5319693 Z M93.6319019,70 L78.5067484,70 L70.4039877,54.9616368 L23.2279142,54.9616368 L15.1251534,70 L0,70 L38.1730062,0.179028133 L55.2788344,0.179028133 L93.6319019,70 Z M63.5616564,42.7877238 L46.815951,11.8158568 L30.0702454,42.7877238 L63.5616564,42.7877238 Z M282.876381,70 L267.751228,70 L259.648467,54.9616368 L212.472393,54.9616368 L204.369632,70 L189.244478,70 L227.417484,0.179028133 L244.523312,0.179028133 L282.876381,70 L282.876381,70 Z M252.806135,42.7877238 L236.06043,11.8158568 L219.314725,42.7877238 L252.806135,42.7877238 Z M397.215338,33.8363172 C402.797239,30.2557545 405.498159,25.421995 405.498159,19.5140665 C405.498159,13.6061381 403.337424,8.95140665 399.015951,5.37084399 C394.694479,1.79028133 388.932516,0 381.369938,0 L285.397239,0 L323.570245,69.8209718 L380.649693,69.8209718 C399.015951,69.8209718 408.19908,63.5549872 408.19908,51.023018 C408.379142,43.5038363 404.777914,37.774936 397.215338,33.8363172 L397.215338,33.8363172 Z M337.43497,12.5319693 L382.270245,12.5319693 C388.932516,12.5319693 392.173619,15.2173913 392.173619,20.4092072 C392.173619,22.9156011 391.273312,24.8849105 389.292639,26.4961637 C387.492024,27.9283887 384.971166,28.6445014 381.730062,28.6445014 L337.43497,28.6445014 L337.43497,12.5319693 L337.43497,12.5319693 Z M391.093252,55.4987213 C388.752454,56.9309463 385.331288,57.6470588 381.009815,57.6470588 L337.61503,57.6470588 L337.61503,40.8184144 L382.090185,40.8184144 C390.373006,40.8184144 394.694479,43.6828645 394.694479,49.5907928 C394.694479,52.0971867 393.434049,54.0664961 391.093252,55.4987213 Z" id="Shape"></path>
            </g>
        </g>
    </g>
</svg>
